<?xml version="1.0" encoding="UTF-8"?>
<svg width="330px" height="120px" viewBox="0 0 330 120" version="1.1" xmlns="http://www.w3.org/2000/svg" xmlns:xlink="http://www.w3.org/1999/xlink">
    <!-- Generator: Sketch 48.2 (47327) - http://www.bohemiancoding.com/sketch -->
    <title>Group 7</title>
    <desc>Created with Sketch.</desc>
    <defs></defs>
    <g id="Page-1" stroke="none" stroke-width="1" fill="none" fill-rule="evenodd">
        <g id="Group-7" fill="#FFFFFF">
            <polygon id="Fill-380" points="34.0212312 38.5752 34.0212312 36.0693818 31.844487 34.8170182 29.6677428 36.0693818 29.6677428 38.5752 31.844487 39.8264727"></polygon>
            <polygon id="Fill-381" points="34.0212312 49.9327636 34.0212312 47.4269455 31.844487 46.1745818 29.6677428 47.4269455 29.6677428 49.9327636 31.844487 51.1851273"></polygon>
            <polygon id="Fill-382" points="34.0212312 61.2903273 34.0212312 58.7845091 31.844487 57.5332364 29.6677428 58.7845091 29.6677428 61.2903273 31.844487 62.5426909"></polygon>
            <polygon id="Fill-383" points="34.0212312 72.6490909 34.0212312 70.1432727 31.844487 68.8909091 29.6677428 70.1432727 29.6677428 72.6490909 31.844487 73.9014545"></polygon>
            <polygon id="Fill-384" points="34.0212312 84.0066545 34.0212312 81.5008364 31.844487 80.2484727 29.6677428 81.5008364 29.6677428 84.0066545 31.844487 85.2590182"></polygon>
            <polygon id="Fill-385" points="36.655212 96.8802545 36.655212 91.3438909 31.8442681 88.5751636 27.0333242 91.3438909 27.0333242 96.8802545 31.8442681 99.6489818"></polygon>
            <polygon id="Fill-386" points="36.655212 108.238909 36.655212 102.701455 31.8442681 99.9327273 27.0333242 102.701455 27.0333242 108.238909 31.8442681 111.006545"></polygon>
            <polygon id="Fill-387" points="24.2176744 21.5393455 24.2176744 19.0335273 22.0409302 17.7811636 19.864186 19.0335273 19.864186 21.5393455 22.0409302 22.7917091"></polygon>
            <polygon id="Fill-388" points="24.2176744 32.8969091 24.2176744 30.3910909 22.0409302 29.1387273 19.864186 30.3910909 19.864186 32.8969091 22.0409302 34.1492727"></polygon>
            <polygon id="Fill-389" points="24.2176744 44.2555636 24.2176744 41.7497455 22.0409302 40.4973818 19.864186 41.7497455 19.864186 44.2555636 22.0409302 45.5079273"></polygon>
            <polygon id="Fill-390" points="24.2176744 55.6131273 24.2176744 53.1073091 22.0409302 51.8549455 19.864186 53.1073091 19.864186 55.6131273 22.0409302 56.8654909"></polygon>
            <polygon id="Fill-391" points="24.2176744 66.9708 24.2176744 64.4660727 22.0409302 63.2137091 19.864186 64.4660727 19.864186 66.9708 22.0409302 68.2231636"></polygon>
            <polygon id="Fill-392" points="24.2176744 78.3294545 24.2176744 75.8236364 22.0409302 74.5712727 19.864186 75.8236364 19.864186 78.3294545 22.0409302 79.5818182"></polygon>
            <polygon id="Fill-393" points="24.2176744 89.6870182 24.2176744 87.1812 22.0409302 85.9288364 19.864186 87.1812 19.864186 89.6870182 22.0409302 90.9393818"></polygon>
            <polygon id="Fill-394" points="24.2176744 101.045673 24.2176744 98.5398545 22.0409302 97.2874909 19.864186 98.5398545 19.864186 101.045673 22.0409302 102.296945"></polygon>
            <polygon id="Fill-395" points="14.3483447 27.2165455 14.3483447 24.7107273 12.1716005 23.4583636 9.99485636 24.7107273 9.99485636 27.2165455 12.1716005 28.4689091"></polygon>
            <polygon id="Fill-396" points="14.3483447 38.5752 14.3483447 36.0693818 12.1716005 34.8170182 9.99485636 36.0693818 9.99485636 38.5752 12.1716005 39.8264727"></polygon>
            <polygon id="Fill-397" points="14.3483447 49.9327636 14.3483447 47.4269455 12.1716005 46.1745818 9.99485636 47.4269455 9.99485636 49.9327636 12.1716005 51.1851273"></polygon>
            <polygon id="Fill-398" points="14.3483447 61.2903273 14.3483447 58.7845091 12.1716005 57.5332364 9.99485636 58.7845091 9.99485636 61.2903273 12.1716005 62.5426909"></polygon>
            <polygon id="Fill-399" points="14.3483447 72.6490909 14.3483447 70.1432727 12.1716005 68.8909091 9.99485636 70.1432727 9.99485636 72.6490909 12.1716005 73.9014545"></polygon>
            <polygon id="Fill-400" points="14.3483447 84.0066545 14.3483447 81.5008364 12.1716005 80.2484727 9.99485636 81.5008364 9.99485636 84.0066545 12.1716005 85.2590182"></polygon>
            <polygon id="Fill-401" points="14.3483447 95.3642182 14.3483447 92.8594909 12.1716005 91.6071273 9.99485636 92.8594909 9.99485636 95.3642182 12.1716005 96.6165818"></polygon>
            <polygon id="Fill-402" points="4.47857729 32.8969091 4.47857729 30.3910909 2.30183311 29.1387273 0.125088919 30.3910909 0.125088919 32.8969091 2.30183311 34.1492727"></polygon>
            <polygon id="Fill-403" points="4.47857729 44.2555636 4.47857729 41.7497455 2.30183311 40.4973818 0.125088919 41.7497455 0.125088919 44.2555636 2.30183311 45.5079273"></polygon>
            <polygon id="Fill-404" points="4.47857729 55.6131273 4.47857729 53.1073091 2.30183311 51.8549455 0.125088919 53.1073091 0.125088919 55.6131273 2.30183311 56.8654909"></polygon>
            <polygon id="Fill-405" points="4.47857729 66.9708 4.47857729 64.4660727 2.30183311 63.2137091 0.125088919 64.4660727 0.125088919 66.9708 2.30183311 68.2231636"></polygon>
            <polygon id="Fill-406" points="4.47857729 78.3294545 4.47857729 75.8236364 2.30183311 74.5712727 0.125088919 75.8236364 0.125088919 78.3294545 2.30183311 79.5818182"></polygon>
            <polygon id="Fill-407" points="4.47857729 89.6870182 4.47857729 87.1812 2.30183311 85.9288364 0.125088919 87.1812 0.125088919 89.6870182 2.30183311 90.9393818"></polygon>
            <polygon id="Fill-408" points="43.9626813 44.2555636 43.9626813 41.7497455 41.7859371 40.4973818 39.6091929 41.7497455 39.6091929 44.2555636 41.7859371 45.5079273"></polygon>
            <polygon id="Fill-409" points="43.9626813 55.6131273 43.9626813 53.1073091 41.7859371 51.8549455 39.6091929 53.1073091 39.6091929 55.6131273 41.7859371 56.8654909"></polygon>
            <polygon id="Fill-410" points="43.9626813 66.9708 43.9626813 64.4660727 41.7859371 63.2137091 39.6091929 64.4660727 39.6091929 66.9708 41.7859371 68.2231636"></polygon>
            <polygon id="Fill-411" points="43.9626813 78.3294545 43.9626813 75.8236364 41.7859371 74.5712727 39.6091929 75.8236364 39.6091929 78.3294545 41.7859371 79.5818182"></polygon>
            <polygon id="Fill-412" points="46.5965527 91.2030545 46.5965527 85.6656 41.7856088 82.8979636 36.9746648 85.6656 36.9746648 91.2030545 41.7856088 93.9717818"></polygon>
            <polygon id="Fill-413" points="46.5965527 102.560618 46.5965527 97.0242545 41.7856088 94.2555273 36.9746648 97.0242545 36.9746648 102.560618 41.7856088 105.329345"></polygon>
            <polygon id="Fill-414" points="46.5965527 113.919273 46.5965527 108.381818 41.7856088 105.613091 36.9746648 108.381818 36.9746648 113.919273 41.7856088 116.688"></polygon>
            <polygon id="Fill-415" points="53.8266484 4.50021818 53.8266484 1.99549091 51.6499042 0.743127273 49.4731601 1.99549091 49.4731601 4.50021818 51.6499042 5.75258182"></polygon>
            <polygon id="Fill-416" points="53.8704241 49.9573091 53.8704241 47.4024 51.6499042 46.1238545 49.4293844 47.4024 49.4293844 49.9573091 51.6499042 51.2358545"></polygon>
            <polygon id="Fill-417" points="53.8266484 61.2903273 53.8266484 58.7845091 51.6499042 57.5332364 49.4731601 58.7845091 49.4731601 61.2903273 51.6499042 62.5426909"></polygon>
            <polygon id="Fill-418" points="53.8704241 72.6735273 53.8704241 70.1175273 51.6499042 68.8400727 49.4293844 70.1175273 49.4293844 72.6735273 51.6499042 73.9520727"></polygon>
            <polygon id="Fill-419" points="56.4605198 85.5225818 56.4605198 79.9851273 51.6495759 77.2174909 46.8397264 79.9851273 46.8397264 85.5225818 51.6495759 88.2913091"></polygon>
            <polygon id="Fill-420" points="56.4605198 96.8802545 56.4605198 91.3438909 51.6495759 88.5751636 46.8397264 91.3438909 46.8397264 96.8802545 51.6495759 99.6489818"></polygon>
            <polygon id="Fill-421" points="56.4605198 108.238909 56.4605198 102.701455 51.6495759 99.9327273 46.8397264 102.701455 46.8397264 108.238909 51.6495759 111.006545"></polygon>
            <polygon id="Fill-422" points="53.8266484 118.080545 53.8266484 115.574727 51.6499042 114.322364 49.4731601 115.574727 49.4731601 118.080545 51.6499042 119.332909"></polygon>
            <polygon id="Fill-423" points="69.279015 61.2903273 69.279015 58.7845091 71.4557592 57.5332364 73.6325034 58.7845091 73.6325034 61.2903273 71.4557592 62.5426909"></polygon>
            <polygon id="Fill-424" points="66.6451436 74.1650182 66.6451436 68.6275636 71.4560876 65.8588364 76.2670315 68.6275636 76.2670315 74.1650182 71.4560876 76.9326545"></polygon>
            <polygon id="Fill-425" points="66.6451436 85.5225818 66.6451436 79.9851273 71.4560876 77.2174909 76.2670315 79.9851273 76.2670315 85.5225818 71.4560876 88.2913091"></polygon>
            <polygon id="Fill-426" points="66.6451436 96.8802545 66.6451436 91.3438909 71.4560876 88.5751636 76.2670315 91.3438909 76.2670315 96.8802545 71.4560876 99.6489818"></polygon>
            <polygon id="Fill-427" points="66.6451436 108.238909 66.6451436 102.701455 71.4560876 99.9327273 76.2670315 102.701455 76.2670315 108.238909 71.4560876 111.006545"></polygon>
            <polygon id="Fill-428" points="79.0387962 55.6387636 79.0387962 53.0827636 81.259316 51.8042182 83.4798358 53.0827636 83.4798358 55.6387636 81.259316 56.9162182"></polygon>
            <polygon id="Fill-429" points="79.0387962 66.9963273 79.0387962 64.4403273 81.259316 63.1628727 83.4798358 64.4403273 83.4798358 66.9963273 81.259316 68.2737818"></polygon>
            <polygon id="Fill-430" points="76.4487004 79.8453818 76.4487004 74.3079273 81.2596443 71.5392 86.0694938 74.3079273 86.0694938 79.8453818 81.2596443 82.6130182"></polygon>
            <polygon id="Fill-431" points="76.4487004 91.2030545 76.4487004 85.6656 81.2596443 82.8979636 86.0694938 85.6656 86.0694938 91.2030545 81.2596443 93.9717818"></polygon>
            <polygon id="Fill-432" points="76.4487004 102.560618 76.4487004 97.0242545 81.2596443 94.2555273 86.0694938 97.0242545 86.0694938 102.560618 81.2596443 105.329345"></polygon>
            <polygon id="Fill-433" points="88.9519015 61.2903273 88.9519015 58.7845091 91.1286457 57.5332364 93.3053899 58.7845091 93.3053899 61.2903273 91.1286457 62.5426909"></polygon>
            <polygon id="Fill-434" points="86.3179207 74.1650182 86.3179207 68.6275636 91.1288646 65.8588364 95.9398085 68.6275636 95.9398085 74.1650182 91.1288646 76.9326545"></polygon>
            <polygon id="Fill-435" points="86.3179207 85.5225818 86.3179207 79.9851273 91.1288646 77.2174909 95.9398085 79.9851273 95.9398085 85.5225818 91.1288646 88.2913091"></polygon>
            <polygon id="Fill-436" points="86.3179207 96.8802545 86.3179207 91.3438909 91.1288646 88.5751636 95.9398085 91.3438909 95.9398085 96.8802545 91.1288646 99.6489818"></polygon>
            <polygon id="Fill-437" points="98.7778933 55.6387636 98.7778933 53.0827636 100.998413 51.8042182 103.218933 53.0827636 103.218933 55.6387636 100.998413 56.9162182"></polygon>
            <polygon id="Fill-438" points="98.7778933 66.9963273 98.7778933 64.4403273 100.998413 63.1628727 103.218933 64.4403273 103.218933 66.9963273 100.998413 68.2737818"></polygon>
            <polygon id="Fill-439" points="96.1877975 79.8453818 96.1877975 74.3079273 100.998741 71.5392 105.809685 74.3079273 105.809685 79.8453818 100.998741 82.6130182"></polygon>
            <polygon id="Fill-440" points="98.8216689 89.6870182 98.8216689 87.1812 100.998413 85.9288364 103.175157 87.1812 103.175157 89.6870182 100.998413 90.9393818"></polygon>
            <polygon id="Fill-441" points="98.8216689 32.7541091 98.8216689 30.2482909 100.998413 28.9959273 103.175157 30.2482909 103.175157 32.7541091 100.998413 34.0064727"></polygon>
            <polygon id="Fill-442" points="36.655212 17.3749091 36.655212 11.8374545 31.8442681 9.06872727 27.0333242 11.8374545 27.0333242 17.3749091 31.8442681 20.1425455"></polygon>
            <polygon id="Fill-443" points="36.655212 28.7324727 36.655212 23.1950182 31.8442681 20.4273818 27.0333242 23.1950182 27.0333242 28.7324727 31.8442681 31.5012"></polygon>
            <polygon id="Fill-444" points="46.5965527 11.6966182 46.5965527 6.16025455 41.7856088 3.39152727 36.9746648 6.16025455 36.9746648 11.6966182 41.7856088 14.4653455"></polygon>
            <polygon id="Fill-445" points="46.5965527 23.0552727 46.5965527 17.5178182 41.7856088 14.7490909 36.9746648 17.5178182 36.9746648 23.0552727 41.7856088 25.8229091"></polygon>
            <polygon id="Fill-446" points="46.5965527 34.4129455 46.5965527 28.8765818 41.7856088 26.1078545 36.9746648 28.8765818 36.9746648 34.4129455 41.7856088 37.1816727"></polygon>
            <polygon id="Fill-447" points="56.4605198 17.3749091 56.4605198 11.8374545 51.6495759 9.06872727 46.8397264 11.8374545 46.8397264 17.3749091 51.6495759 20.1425455"></polygon>
            <polygon id="Fill-448" points="56.4605198 28.7324727 56.4605198 23.1950182 51.6495759 20.4273818 46.8397264 23.1950182 46.8397264 28.7324727 51.6495759 31.5012"></polygon>
            <polygon id="Fill-449" points="56.4605198 40.0901455 56.4605198 34.5537818 51.6495759 31.7850545 46.8397264 34.5537818 46.8397264 40.0901455 51.6495759 42.8588727"></polygon>
            <polygon id="Fill-450" points="66.6451436 17.3749091 66.6451436 11.8374545 71.4560876 9.06872727 76.2670315 11.8374545 76.2670315 17.3749091 71.4560876 20.1425455"></polygon>
            <polygon id="Fill-451" points="66.6451436 28.7324727 66.6451436 23.1950182 71.4560876 20.4273818 76.2670315 23.1950182 76.2670315 28.7324727 71.4560876 31.5012"></polygon>
            <polygon id="Fill-452" points="66.6451436 40.0901455 66.6451436 34.5537818 71.4560876 31.7850545 76.2670315 34.5537818 76.2670315 40.0901455 71.4560876 42.8588727"></polygon>
            <polygon id="Fill-453" points="66.6451436 51.4488 66.6451436 45.9113455 71.4560876 43.1426182 76.2670315 45.9113455 76.2670315 51.4488 71.4560876 54.2175273"></polygon>
            <polygon id="Fill-454" points="76.4487004 23.0552727 76.4487004 17.5178182 81.2596443 14.7490909 86.0694938 17.5178182 86.0694938 23.0552727 81.2596443 25.8229091"></polygon>
            <polygon id="Fill-455" points="76.4487004 34.4129455 76.4487004 28.8765818 81.2596443 26.1078545 86.0694938 28.8765818 86.0694938 34.4129455 81.2596443 37.1816727"></polygon>
            <polygon id="Fill-456" points="76.4487004 45.7705091 76.4487004 40.2341455 81.2596443 37.4654182 86.0694938 40.2341455 86.0694938 45.7705091 81.2596443 48.5392364"></polygon>
            <polygon id="Fill-457" points="86.3179207 28.7324727 86.3179207 23.1950182 91.1288646 20.4273818 95.9398085 23.1950182 95.9398085 28.7324727 91.1288646 31.5012"></polygon>
            <polygon id="Fill-458" points="86.3179207 40.0901455 86.3179207 34.5537818 91.1288646 31.7850545 95.9398085 34.5537818 95.9398085 40.0901455 91.1288646 42.8588727"></polygon>
            <polygon id="Fill-459" points="86.3179207 51.4488 86.3179207 45.9113455 91.1288646 43.1426182 95.9398085 45.9113455 95.9398085 51.4488 91.1288646 54.2175273"></polygon>
            <polygon id="Fill-460" points="96.1877975 45.7705091 96.1877975 40.2341455 100.998741 37.4654182 105.809685 40.2341455 105.809685 45.7705091 100.998741 48.5392364"></polygon>
            <polygon id="Fill-461" points="56.7036936 11.6966182 56.7036936 6.16025455 61.5146375 3.39152727 66.3255814 6.16025455 66.3255814 11.6966182 61.5146375 14.4653455"></polygon>
            <polygon id="Fill-462" points="56.7036936 23.0552727 56.7036936 17.5178182 61.5146375 14.7490909 66.3255814 17.5178182 66.3255814 23.0552727 61.5146375 25.8229091"></polygon>
            <polygon id="Fill-463" points="56.7036936 34.4129455 56.7036936 28.8765818 61.5146375 26.1078545 66.3255814 28.8765818 66.3255814 34.4129455 61.5146375 37.1816727"></polygon>
            <polygon id="Fill-464" points="56.7036936 45.7705091 56.7036936 40.2341455 61.5146375 37.4654182 66.3255814 40.2341455 66.3255814 45.7705091 61.5146375 48.5392364"></polygon>
            <polygon id="Fill-465" points="59.2937893 55.6387636 59.2937893 53.0827636 61.5143092 51.8042182 63.734829 53.0827636 63.734829 55.6387636 61.5143092 56.9162182"></polygon>
            <polygon id="Fill-466" points="59.2937893 66.9963273 59.2937893 64.4403273 61.5143092 63.1628727 63.734829 64.4403273 63.734829 66.9963273 61.5143092 68.2737818"></polygon>
            <polygon id="Fill-467" points="56.7036936 79.8453818 56.7036936 74.3079273 61.5146375 71.5392 66.3255814 74.3079273 66.3255814 79.8453818 61.5146375 82.6130182"></polygon>
            <polygon id="Fill-468" points="56.7036936 91.2030545 56.7036936 85.6656 61.5146375 82.8979636 66.3255814 85.6656 66.3255814 91.2030545 61.5146375 93.9717818"></polygon>
            <polygon id="Fill-469" points="56.7036936 102.560618 56.7036936 97.0242545 61.5146375 94.2555273 66.3255814 97.0242545 66.3255814 102.560618 61.5146375 105.329345"></polygon>
            <polygon id="Fill-470" points="56.7036936 113.919273 56.7036936 108.381818 61.5146375 105.613091 66.3255814 108.381818 66.3255814 113.919273 61.5146375 116.688"></polygon>
            <path d="M150.538659,40.9774909 L149.434419,40.9774909 C149.049193,38.6724 148.431956,37.2378545 147.584897,36.5724 C146.710479,35.8556727 145.606238,35.6254909 143.34632,35.6254909 L142.010068,35.6254909 C140.62238,35.6254909 140.391464,35.8044 140.391464,36.9062182 L140.391464,42.7436727 L141.0087,42.7436727 C143.448098,42.7436727 144.475732,41.7454909 144.60487,39.2353091 L145.811984,39.2353091 L145.811984,47.6353091 L144.60487,47.6353091 C144.553434,46.1244 144.296252,45.3051273 143.628673,44.6385818 C143.114309,44.1007636 142.471902,43.9480364 140.904733,43.9480364 L140.391464,43.9480364 L140.391464,50.4771273 C140.391464,51.0149455 140.416635,51.1687636 140.597209,51.3225818 C140.828126,51.5527636 141.470534,51.7065818 142.240985,51.7065818 L143.936197,51.7065818 C146.094337,51.7065818 147.558632,51.2200364 148.355349,50.1956727 C148.971491,49.4538545 149.562462,47.8654909 149.896252,46.0731273 L151.026758,46.0731273 L150.513488,52.9098545 L134.740027,52.9098545 L134.740027,51.7065818 L135.20186,51.7065818 C137.283393,51.7065818 137.514309,51.5789455 137.514309,50.5022182 L137.514309,49.7604 L137.514309,37.5716727 L137.514309,36.8287636 C137.514309,35.7531273 137.283393,35.6254909 135.20186,35.6254909 L134.740027,35.6254909 L134.740027,34.4211273 L150.178605,34.4211273 L150.538659,40.9774909 Z" id="Fill-471"></path>
            <path d="M160.662326,43.8710182 C160.791464,43.4859273 160.893242,43.0768364 160.893242,42.7953818 C160.893242,42.2062909 160.406238,41.8986545 159.506648,41.8986545 L159.146594,41.8986545 L159.146594,40.9779273 L164.284761,40.9779273 L164.284761,41.8986545 L164.181888,41.8986545 C163.205691,41.8986545 162.486676,42.6164727 161.792832,44.3062909 L158.145226,53.2942909 L157.245636,53.2942909 L152.827579,43.0004727 C152.467524,42.1288364 152.108564,41.8986545 151.132367,41.8986545 L150.926621,41.8986545 L150.926621,40.9779273 L156.989549,40.9779273 L156.989549,41.8986545 L156.629494,41.8986545 C155.576689,41.8986545 155.241806,42.0524727 155.241806,42.4877455 C155.241806,42.6415636 155.293242,42.8717455 155.370944,43.0266545 L158.29844,49.8121091 L160.662326,43.8710182 Z" id="Fill-472"></path>
            <path d="M165.748947,46.9689818 C165.748947,50.3497091 166.750315,52.1933455 168.599836,52.1933455 C170.449357,52.1933455 171.451819,50.3497091 171.451819,46.9438909 C171.451819,43.5631636 170.449357,41.6944364 168.651272,41.6944364 C166.725144,41.6944364 165.748947,43.4868 165.748947,46.9689818 M174.149494,46.9438909 C174.149494,50.4773455 171.682736,53.2940727 168.599836,53.2940727 C165.516936,53.2940727 163.051272,50.4773455 163.051272,46.9689818 C163.051272,43.3842545 165.516936,40.5926182 168.651272,40.5926182 C171.682736,40.5926182 174.149494,43.4355273 174.149494,46.9438909" id="Fill-473"></path>
            <path d="M177.835404,49.7601818 L177.835404,50.7845455 C177.835404,51.8089091 178.117756,51.9889091 179.787798,51.9889091 L179.967278,51.9889091 L179.967278,52.9107273 L173.313379,52.9107273 L173.313379,51.9889091 L173.493953,51.9889091 C175.137729,51.9889091 175.421176,51.8089091 175.421176,50.7845455 L175.421176,49.7601818 L175.421176,36.7009091 C175.421176,35.6001818 175.265773,35.4201818 174.342107,35.4201818 L173.082462,35.4201818 L173.082462,34.3194545 L177.835404,34.038 L177.835404,49.7601818 Z" id="Fill-474"></path>
            <path d="M188.655321,50.964 C187.524815,52.6036364 186.343967,53.2941818 184.647661,53.2941818 C183.106758,53.2941818 181.873379,52.7061818 181.179535,51.6556364 C180.794309,51.0665455 180.692531,50.4774545 180.692531,49.1716364 L180.692531,43.6407273 C180.692531,42.5389091 180.537127,42.36 179.587196,42.36 L178.610999,42.36 L178.610999,41.2592727 L183.106758,40.9778182 L183.106758,48.7876364 C183.106758,50.196 183.158194,50.4512727 183.491984,50.9389091 C183.825773,51.4505455 184.493352,51.732 185.290068,51.732 C186.548618,51.732 187.576252,51.0665455 188.115787,49.9407273 C188.501012,49.0941818 188.655321,48.2498182 188.655321,46.7901818 L188.655321,43.6407273 C188.655321,42.5389091 188.501012,42.36 187.549986,42.36 L186.241094,42.36 L186.241094,41.2592727 L191.069549,40.9778182 L191.069549,49.9407273 C191.069549,51.5781818 191.276389,51.8083636 192.689248,51.8083636 L193.330561,51.8083636 L193.330561,52.9101818 L188.655321,53.0890909 L188.655321,50.964 Z" id="Fill-475"></path>
            <path d="M200.064131,40.9774909 L200.064131,42.0782182 L196.287387,42.0782182 L196.287387,49.0687636 C196.287387,49.9916727 196.363995,50.6320364 196.519398,50.9898545 C196.698878,51.4251273 197.213242,51.7316727 197.804213,51.7316727 C199.061669,51.7316727 199.729248,50.5545818 199.806949,48.2494909 L200.886019,48.2494909 C200.91119,48.5058545 200.91119,48.6847636 200.91119,48.8385818 C200.91119,50.2469455 200.423092,51.6040364 199.576033,52.4233091 C198.985062,52.9873091 198.111737,53.2938545 197.109275,53.2938545 C195.618714,53.2938545 194.592175,52.7058545 194.180684,51.6302182 C193.924596,51.0411273 193.87316,50.4007636 193.87316,48.6084 L193.87316,42.0782182 L191.766457,42.0782182 L191.766457,41.0800364 C193.846895,40.9262182 194.977401,39.2353091 195.234583,35.9069455 L196.287387,35.9069455 L196.287387,40.9774909 L200.064131,40.9774909 Z" id="Fill-476"></path>
            <path d="M205.181286,36.0865091 C205.181286,36.9057818 204.513707,37.5712364 203.665554,37.5712364 C202.869932,37.5712364 202.200164,36.8806909 202.200164,36.0865091 C202.200164,35.2661455 202.869932,34.6017818 203.691819,34.6017818 C204.513707,34.6017818 205.181286,35.2661455 205.181286,36.0865091 Z M204.897839,49.7599636 L204.897839,50.7854182 C204.897839,51.8086909 205.181286,51.9886909 206.850233,51.9886909 L207.029713,51.9886909 L207.029713,52.9105091 L200.376908,52.9105091 L200.376908,51.9886909 L200.556389,51.9886909 C202.200164,51.9886909 202.483611,51.8086909 202.483611,50.7854182 L202.483611,49.7599636 L202.483611,43.3628727 C202.483611,42.2610545 202.330397,42.0821455 201.378276,42.0821455 L200.014665,42.0821455 L200.014665,40.9803273 L204.897839,40.8472364 L204.897839,49.7599636 Z" id="Fill-477"></path>
            <path d="M208.915458,46.9689818 C208.915458,50.3497091 209.917921,52.1933455 211.766347,52.1933455 C213.616963,52.1933455 214.618331,50.3497091 214.618331,46.9438909 C214.618331,43.5631636 213.616963,41.6944364 211.817784,41.6944364 C209.89275,41.6944364 208.915458,43.4868 208.915458,46.9689818 M217.316005,46.9438909 C217.316005,50.4773455 214.850342,53.2940727 211.766347,53.2940727 C208.684542,53.2940727 206.217784,50.4773455 206.217784,46.9689818 C206.217784,43.3842545 208.684542,40.5926182 211.817784,40.5926182 C214.850342,40.5926182 217.316005,43.4355273 217.316005,46.9438909" id="Fill-478"></path>
            <path d="M221.143967,43.0517455 C222.274473,41.3608364 223.559289,40.5928364 225.203064,40.5928364 C226.718796,40.5928364 228.028782,41.3357455 228.67119,42.5652 C229.134118,43.4357455 229.210725,43.8961091 229.210725,45.7408364 L229.210725,49.7597455 L229.210725,50.7852 C229.210725,51.8084727 229.493078,51.9884727 231.136854,51.9884727 L231.240821,51.9884727 L231.240821,52.9102909 L224.740137,52.9102909 L224.740137,51.9884727 L224.84301,51.9884727 C226.513051,51.9884727 226.795404,51.8084727 226.795404,50.7852 L226.795404,49.7597455 L226.795404,45.6121091 C226.795404,44.3837455 226.615923,43.5895636 226.229603,43.0517455 C225.845472,42.5390182 225.075021,42.1550182 224.406347,42.1550182 C223.302107,42.1550182 222.145335,42.9492 221.606895,44.1012 C221.323447,44.6902909 221.143967,45.8433818 221.143967,47.0979273 L221.143967,49.7597455 L221.143967,50.7852 C221.143967,51.8084727 221.42632,51.9884727 223.096361,51.9884727 L223.199234,51.9884727 L223.199234,52.9102909 L216.699644,52.9102909 L216.699644,51.9884727 L216.802517,51.9884727 C218.446293,51.9884727 218.72974,51.8084727 218.72974,50.7852 L218.72974,49.7597455 L218.72974,43.6408364 C218.72974,42.5390182 218.574337,42.3601091 217.624405,42.3601091 L216.699644,42.3601091 L216.699644,41.2582909 L221.143967,40.9779273 L221.143967,43.0517455 Z" id="Fill-479"></path>
            <path d="M253.127114,41.4377455 L252.021778,41.4377455 C250.968974,37.3402909 248.939973,35.2402909 246.010287,35.2402909 C242.439289,35.2402909 240.539425,38.2882909 240.539425,43.9992 C240.539425,46.7384727 240.949822,48.5570182 241.900848,49.9653818 C242.774172,51.2461091 244.443119,52.0915636 246.087989,52.0915636 C247.75803,52.0915636 249.401806,51.2199273 250.044213,49.9653818 C250.352832,49.3512 250.557483,48.3257455 250.557483,47.2261091 C250.557483,45.8177455 250.378003,45.6890182 248.220958,45.6890182 L247.731765,45.6890182 L247.731765,44.4857455 L255.901395,44.4857455 L255.901395,45.6890182 L255.51617,45.6890182 C254.128482,45.6890182 253.590041,45.7915636 253.35803,46.0479273 C253.203721,46.2268364 253.203721,46.2519273 253.203721,47.6352 L253.203721,53.2686545 L252.124651,53.2686545 L251.17472,50.9635636 C249.504679,52.6293818 247.990041,53.2937455 245.830807,53.2937455 C243.365144,53.2937455 241.001259,52.2442909 239.408919,50.4519273 C237.919453,48.7872 237.147907,46.6108364 237.147907,43.9992 C237.147907,40.5421091 238.32985,37.9555636 240.873215,35.9068364 C242.490725,34.6010182 244.084159,34.0381091 246.114254,34.0381091 C247.990041,34.0381091 249.119453,34.4722909 250.789494,35.8042909 L251.790862,34.2421091 L252.767059,34.2421091 L253.127114,41.4377455 Z" id="Fill-480"></path>
            <path d="M263.569795,46.6110545 C261.565964,46.9437818 260.564596,47.2001455 259.766785,47.5579636 C258.637373,48.0957818 258.097839,48.8637818 258.097839,49.9405091 C258.097839,51.0914182 258.971163,51.9379636 260.12684,51.9379636 C261.231081,51.9379636 262.413023,51.2976 263.055431,50.3496 C263.493187,49.6830545 263.569795,49.3252364 263.569795,47.7881455 L263.569795,46.6110545 Z M265.984022,49.8128727 C265.984022,51.0914182 266.241204,51.5790545 266.961313,51.5790545 C267.165964,51.5790545 267.268837,51.5528727 267.680328,51.4001455 C267.859808,51.3226909 267.962681,51.2976 268.06446,51.2976 C268.193598,51.2976 268.322736,51.4252364 268.322736,51.6041455 C268.322736,52.3470545 267.114528,53.0888727 265.958851,53.0888727 C264.750643,53.0888727 264.10933,52.5772364 263.697839,51.2714182 C262.592503,52.5772364 261.000164,53.2939636 259.228345,53.2939636 C256.967332,53.2939636 255.503037,52.1168727 255.503037,50.2983273 C255.503037,48.6848727 256.582107,47.4816 258.791683,46.6623273 C260.050233,46.1757818 260.87212,45.9706909 263.569795,45.5092364 L263.569795,44.5110545 C263.569795,43.3590545 263.390315,42.7437818 262.902216,42.3346909 C262.490725,41.9506909 261.591135,41.6943273 260.795513,41.6943273 C259.562134,41.6943273 258.508235,42.1546909 258.508235,42.6925091 C258.508235,42.7699636 258.534501,42.8463273 258.68881,43.0263273 C258.944897,43.3841455 259.074036,43.7430545 259.074036,44.0757818 C259.074036,44.8437818 258.484159,45.3816 257.686347,45.3816 C256.787852,45.3816 256.196881,44.7674182 256.196881,43.7943273 C256.196881,41.9506909 258.328755,40.5925091 261.207004,40.5925091 C262.85078,40.5925091 264.10933,40.9525091 264.957483,41.6179636 C265.701669,42.2321455 265.984022,43.0514182 265.984022,44.6648727 L265.984022,49.8128727 Z" id="Fill-481"></path>
            <path d="M272.486347,42.9494182 C273.487715,41.3359636 274.644487,40.5930545 276.18539,40.5930545 C277.906867,40.5930545 279.294555,41.6174182 279.730123,43.1534182 C280.835458,41.3861455 282.068837,40.5930545 283.737784,40.5930545 C284.971163,40.5930545 286.023967,41.1057818 286.770342,42.0526909 C287.436826,42.9232364 287.59223,43.4610545 287.59223,45.0494182 L287.59223,49.7599636 L287.59223,50.7592364 C287.59223,51.8086909 287.874583,51.9886909 289.518358,51.9886909 L289.621231,51.9886909 L289.621231,52.9105091 L283.121642,52.9105091 L283.121642,51.9886909 L283.224514,51.9886909 C284.894555,51.9886909 285.176908,51.8086909 285.176908,50.7854182 L285.176908,49.7599636 L285.176908,45.5610545 C285.176908,44.5628727 285.099207,43.9988727 284.86829,43.4348727 C284.534501,42.6417818 283.840657,42.1541455 282.993598,42.1541455 C281.194419,42.1541455 280.038741,43.7937818 280.038741,46.3541455 L280.038741,49.7599636 L280.038741,50.7854182 C280.038741,51.8086909 280.321094,51.9886909 281.965964,51.9886909 L282.068837,51.9886909 L282.068837,52.9105091 L275.568153,52.9105091 L275.568153,51.9886909 L275.671026,51.9886909 C277.342161,51.9886909 277.62342,51.8086909 277.62342,50.7854182 L277.62342,49.7599636 L277.62342,45.2796 C277.62342,44.2290545 277.470205,43.4861455 277.111245,43.0006909 C276.801532,42.5141455 276.082517,42.1541455 275.414938,42.1541455 C273.744897,42.1541455 272.486347,43.8450545 272.486347,46.1239636 L272.486347,49.7599636 L272.486347,50.7592364 C272.486347,51.8086909 272.7687,51.9886909 274.41357,51.9886909 L274.515349,51.9886909 L274.515349,52.9105091 L268.042025,52.9105091 L268.042025,51.9886909 L268.144897,51.9886909 C269.788673,51.9886909 270.071026,51.8086909 270.071026,50.7592364 L270.071026,49.7599636 L270.071026,43.6410545 C270.071026,42.5392364 269.916717,42.3603273 268.966785,42.3603273 L267.912886,42.3603273 L267.912886,41.2585091 L272.486347,40.9770545 L272.486347,42.9494182 Z" id="Fill-482"></path>
            <path d="M294.306867,36.0865091 C294.306867,36.9057818 293.639289,37.5712364 292.791135,37.5712364 C291.995513,37.5712364 291.32684,36.8806909 291.32684,36.0865091 C291.32684,35.2661455 291.995513,34.6017818 292.817401,34.6017818 C293.639289,34.6017818 294.306867,35.2661455 294.306867,36.0865091 Z M294.024514,49.7599636 L294.024514,50.7854182 C294.024514,51.8086909 294.306867,51.9886909 295.975814,51.9886909 L296.156389,51.9886909 L296.156389,52.9105091 L289.50249,52.9105091 L289.50249,51.9886909 L289.68197,51.9886909 C291.32684,51.9886909 291.609193,51.8086909 291.609193,50.7854182 L291.609193,49.7599636 L291.609193,43.6410545 C291.609193,42.5392364 291.455978,42.3603273 290.503858,42.3603273 L289.193871,42.3603273 L289.193871,41.2585091 L294.024514,40.9770545 L294.024514,49.7599636 Z" id="Fill-483"></path>
            <path d="M300.450999,43.0517455 C301.581505,41.3608364 302.86632,40.5928364 304.510096,40.5928364 C306.025828,40.5928364 307.335814,41.3357455 307.978222,42.5652 C308.441149,43.4357455 308.517756,43.8961091 308.517756,45.7408364 L308.517756,49.7597455 L308.517756,50.7852 C308.517756,51.8084727 308.800109,51.9884727 310.444979,51.9884727 L310.547852,51.9884727 L310.547852,52.9102909 L304.047168,52.9102909 L304.047168,51.9884727 L304.150041,51.9884727 C305.820082,51.9884727 306.102435,51.8084727 306.102435,50.7852 L306.102435,49.7597455 L306.102435,45.6121091 C306.102435,44.3837455 305.922955,43.5895636 305.537729,43.0517455 C305.152503,42.5390182 304.382052,42.1550182 303.713379,42.1550182 C302.609138,42.1550182 301.453461,42.9492 300.913926,44.1012 C300.630479,44.6902909 300.450999,45.8433818 300.450999,47.0979273 L300.450999,49.7597455 L300.450999,50.7852 C300.450999,51.8084727 300.734446,51.9884727 302.403393,51.9884727 L302.506265,51.9884727 L302.506265,52.9102909 L296.006676,52.9102909 L296.006676,51.9884727 L296.109549,51.9884727 C297.753324,51.9884727 298.036772,51.8084727 298.036772,50.7852 L298.036772,49.7597455 L298.036772,43.6408364 C298.036772,42.5390182 297.882462,42.3601091 296.931436,42.3601091 L296.006676,42.3601091 L296.006676,41.2582909 L300.450999,40.9779273 L300.450999,43.0517455 Z" id="Fill-484"></path>
            <path d="M313.144405,44.8692 C313.144405,46.7902909 314.145773,47.9935636 315.738112,47.9935636 C317.382982,47.9935636 318.359179,46.7902909 318.359179,44.7928364 C318.359179,42.8204727 317.45959,41.6946545 315.842079,41.6946545 C314.120602,41.6946545 313.144405,42.8466545 313.144405,44.8692 Z M313.709111,53.2168364 C312.476826,53.8572 312.013899,54.4212 312.013899,55.2655636 C312.013899,56.4186545 313.247278,57.0590182 315.404323,57.0590182 C318.281477,57.0590182 319.951518,56.2135636 319.951518,54.7550182 C319.951518,53.9346545 319.309111,53.3717455 318.281477,53.2681091 C317.896252,53.2168364 317.741943,53.2168364 315.610068,53.2168364 L313.709111,53.2168364 Z M316.94632,51.0153818 C318.719234,51.0153818 319.541122,51.1179273 320.2087,51.3742909 C321.158632,51.7572 321.749603,52.7826545 321.749603,54.0633818 C321.749603,56.7524727 319.592558,58.1084727 315.302544,58.1084727 C311.85959,58.1084727 309.882025,57.1615636 309.882025,55.4717455 C309.882025,54.4212 310.652476,53.6019273 312.244815,53.0379273 C311.037702,52.6288364 310.523338,51.9633818 310.523338,50.8364727 C310.523338,49.4281091 311.243447,48.6601091 312.96383,48.2750182 C311.627579,47.6608364 310.805691,46.3539273 310.805691,44.8441091 C310.805691,42.2837455 312.809521,40.5928364 315.86725,40.5928364 C317.150971,40.5928364 317.972859,40.8481091 319.051929,41.5670182 C320.234966,40.4902909 320.695705,40.2350182 321.518687,40.2350182 C322.520055,40.2350182 323.213899,40.8481091 323.213899,41.7197455 C323.213899,42.4113818 322.699535,42.9492 322.058222,42.9492 C321.415814,42.9492 321.005417,42.6164727 320.902544,42.0012 C320.851108,41.7197455 320.774501,41.6433818 320.645363,41.6433818 C320.439617,41.6433818 320.2087,41.7972 319.772038,42.2575636 C320.491053,43.1030182 320.723064,43.7433818 320.723064,44.7666545 C320.723064,46.4575636 319.848646,47.7884727 318.307743,48.4812 C317.45959,48.8641091 317.074364,48.9153818 314.633871,48.9666545 C312.912394,49.0179273 312.21855,49.3506545 312.21855,50.1186545 C312.21855,50.4001091 312.346594,50.6826545 312.528263,50.7852 C312.835787,50.9641091 312.912394,50.9892 314.325253,51.0153818 L316.94632,51.0153818 Z" id="Fill-485"></path>
            <path d="M157.726949,66.1845818 L156.097401,66.1845818 C155.529412,62.7864 154.619973,60.6711273 153.370178,59.6893091 C152.082079,58.6311273 150.452531,58.2918545 147.119015,58.2918545 L145.149111,58.2918545 C143.103694,58.2918545 142.762244,58.5558545 142.762244,60.1802182 L142.762244,68.7907636 L143.671683,68.7907636 C147.270041,68.7907636 148.785773,67.3180364 148.975103,63.6165818 L150.755677,63.6165818 L150.755677,76.0038545 L148.975103,76.0038545 C148.89959,73.7751273 148.52093,72.5674909 147.534884,71.5845818 C146.777565,70.7925818 145.830917,70.5656727 143.519562,70.5656727 L142.762244,70.5656727 L142.762244,80.1951273 C142.762244,80.9882182 142.799453,81.2151273 143.06539,81.4409455 C143.40684,81.7813091 144.353488,82.0082182 145.489466,82.0082182 L147.99015,82.0082182 C151.17264,82.0082182 153.331874,81.2904 154.506156,79.7805818 C155.415595,78.6853091 156.286731,76.3442182 156.779207,73.6998545 L158.447059,73.6998545 L157.688646,83.7831273 L134.42736,83.7831273 L134.42736,82.0082182 L135.109166,82.0082182 C138.177839,82.0082182 138.519289,81.8194909 138.519289,80.2333091 L138.519289,79.1380364 L138.519289,61.1620364 L138.519289,60.0667636 C138.519289,58.4805818 138.177839,58.2918545 135.109166,58.2918545 L134.42736,58.2918545 L134.42736,56.5169455 L157.19617,56.5169455 L157.726949,66.1845818 Z" id="Fill-486"></path>
            <path d="M165.189494,69.2431636 C166.856252,66.7515273 168.750643,65.6180727 171.17472,65.6180727 C173.410561,65.6180727 175.343256,66.7133455 176.289904,68.5264364 C176.97171,69.8104364 177.085527,70.4900727 177.085527,73.2086182 L177.085527,79.1377091 L177.085527,80.6486182 C177.085527,82.1595273 177.501395,82.4235273 179.926566,82.4235273 L180.078687,82.4235273 L180.078687,83.7828 L170.492914,83.7828 L170.492914,82.4235273 L170.645034,82.4235273 C173.107415,82.4235273 173.524378,82.1595273 173.524378,80.6486182 L173.524378,79.1377091 L173.524378,73.0198909 C173.524378,71.2078909 173.259535,70.0373455 172.690451,69.2431636 C172.121368,68.4882545 170.98539,67.9220727 170.000438,67.9220727 C168.371984,67.9220727 166.666922,69.0926182 165.8713,70.7922545 C165.454337,71.6606182 165.189494,73.3591636 165.189494,75.2104364 L165.189494,79.1377091 L165.189494,80.6486182 C165.189494,82.1595273 165.605363,82.4235273 168.067743,82.4235273 L168.219863,82.4235273 L168.219863,83.7828 L158.635185,83.7828 L158.635185,82.4235273 L158.786211,82.4235273 C161.211382,82.4235273 161.628345,82.1595273 161.628345,80.6486182 L161.628345,79.1377091 L161.628345,70.1126182 C161.628345,68.4882545 161.400711,68.2231636 159.998796,68.2231636 L158.635185,68.2231636 L158.635185,66.5998909 L165.189494,66.1842545 L165.189494,69.2431636 Z" id="Fill-487"></path>
            <path d="M183.828837,71.9246182 C183.828837,74.7577091 185.306265,76.5326182 187.654829,76.5326182 C190.08,76.5326182 191.519124,74.7577091 191.519124,71.8111636 C191.519124,68.9028 190.192722,67.2424364 187.806949,67.2424364 C185.267962,67.2424364 183.828837,68.9420727 183.828837,71.9246182 Z M184.661669,84.2355273 C182.843885,85.1802545 182.162079,86.0115273 182.162079,87.2573455 C182.162079,88.9569818 183.979863,89.9017091 187.162353,89.9017091 C191.405308,89.9017091 193.867688,88.6548 193.867688,86.5013455 C193.867688,85.2937091 192.92104,84.4624364 191.405308,84.3108 C190.836224,84.2355273 190.609685,84.2355273 187.465499,84.2355273 L184.661669,84.2355273 Z M189.435404,80.9889818 C192.049904,80.9889818 193.261395,81.1395273 194.247442,81.5169818 C195.648263,82.0842545 196.520492,83.5940727 196.520492,85.4824364 C196.520492,89.4468 193.336908,91.4486182 187.010233,91.4486182 C181.934446,91.4486182 179.017893,90.0522545 179.017893,87.5595273 C179.017893,86.0115273 180.153871,84.8028 182.502435,83.9715273 C180.72186,83.3671636 179.964542,82.3853455 179.964542,80.7238909 C179.964542,78.6468 181.023912,77.5144364 183.5629,76.9471636 C181.592996,76.0406182 180.381505,74.1151636 180.381505,71.8875273 C180.381505,68.1108 183.336361,65.6180727 187.844159,65.6180727 C189.73855,65.6180727 190.951135,65.9955273 192.54238,67.0526182 C194.284651,65.4675273 194.966457,65.0889818 196.179042,65.0889818 C197.656471,65.0889818 198.678632,65.9955273 198.678632,67.2795273 C198.678632,68.2995273 197.921313,69.0926182 196.974665,69.0926182 C196.026922,69.0926182 195.421724,68.6017091 195.269603,67.6951636 C195.19409,67.2795273 195.080274,67.1671636 194.88985,67.1671636 C194.587798,67.1671636 194.247442,67.3929818 193.602845,68.0726182 C194.663311,69.3184364 195.004761,70.2631636 195.004761,71.7729818 C195.004761,74.2657091 193.716662,76.2293455 191.443611,77.2493455 C190.192722,77.8155273 189.624733,77.8918909 186.026375,77.9671636 C183.487387,78.0424364 182.464131,78.5344364 182.464131,79.6668 C182.464131,80.0824364 182.654555,80.4969818 182.919398,80.6486182 C183.37357,80.9126182 183.487387,80.9497091 185.571108,80.9889818 L189.435404,80.9889818 Z" id="Fill-488"></path>
            <path d="M206.710588,60.2697818 C206.710588,61.4785091 205.725636,62.4603273 204.474747,62.4603273 C203.300465,62.4603273 202.315513,61.4403273 202.315513,60.2697818 C202.315513,59.0621455 203.300465,58.0792364 204.513051,58.0792364 C205.725636,58.0792364 206.710588,59.0621455 206.710588,60.2697818 Z M206.293625,79.1381455 L206.293625,80.6490545 C206.293625,82.1588727 206.710588,82.4239636 209.172969,82.4239636 L209.437811,82.4239636 L209.437811,83.7832364 L199.625499,83.7832364 L199.625499,82.4239636 L199.891436,82.4239636 C202.315513,82.4239636 202.732476,82.1588727 202.732476,80.6490545 L202.732476,79.1381455 L202.732476,70.1119636 C202.732476,68.4876 202.504843,68.2236 201.102927,68.2236 L199.171327,68.2236 L199.171327,66.6003273 L206.293625,66.1846909 L206.293625,79.1381455 Z" id="Fill-489"></path>
            <path d="M216.033269,69.2431636 C217.700027,66.7515273 219.594419,65.6180727 222.01959,65.6180727 C224.254337,65.6180727 226.185937,66.7133455 227.13368,68.5264364 C227.815486,69.8104364 227.929302,70.4900727 227.929302,73.2086182 L227.929302,79.1377091 L227.929302,80.6486182 C227.929302,82.1595273 228.346265,82.4235273 230.770342,82.4235273 L230.921368,82.4235273 L230.921368,83.7828 L221.337784,83.7828 L221.337784,82.4235273 L221.487715,82.4235273 C223.95119,82.4235273 224.368153,82.1595273 224.368153,80.6486182 L224.368153,79.1377091 L224.368153,73.0198909 C224.368153,71.2078909 224.103311,70.0373455 223.534227,69.2431636 C222.966238,68.4882545 221.83026,67.9220727 220.844213,67.9220727 C219.215759,67.9220727 217.510698,69.0926182 216.715075,70.7922545 C216.298112,71.6606182 216.033269,73.3591636 216.033269,75.2104364 L216.033269,79.1377091 L216.033269,80.6486182 C216.033269,82.1595273 216.450233,82.4235273 218.912613,82.4235273 L219.064733,82.4235273 L219.064733,83.7828 L209.47896,83.7828 L209.47896,82.4235273 L209.629986,82.4235273 C212.055157,82.4235273 212.47212,82.1595273 212.47212,80.6486182 L212.47212,79.1377091 L212.47212,70.1126182 C212.47212,68.4882545 212.244487,68.2231636 210.842572,68.2231636 L209.47896,68.2231636 L209.47896,66.5998909 L216.033269,66.1842545 L216.033269,69.2431636 Z" id="Fill-490"></path>
            <path d="M240.279836,73.6622182 C241.491327,73.6622182 241.832777,73.3600364 241.832777,72.2647636 C241.832777,69.2429455 240.317045,67.2422182 238.006785,67.2422182 C236.187907,67.2422182 234.975321,68.3374909 234.179699,70.6033091 C233.80104,71.6604 233.648919,72.4916727 233.648919,73.6622182 L240.279836,73.6622182 Z M233.61171,75.2854909 C233.573406,77.3636727 233.876553,78.6847636 234.558358,79.8182182 C235.543311,81.4796727 236.945226,82.3109455 238.877921,82.3109455 C241.415814,82.3109455 243.007059,81.1774909 244.56,78.2702182 L245.886402,78.9869455 C244.332367,82.5749455 241.757264,84.3498545 238.157811,84.3498545 C233.043721,84.3498545 229.595294,80.7618545 229.595294,75.4742182 C229.595294,69.8102182 233.233051,65.6178545 238.081204,65.6178545 C242.703912,65.6178545 245.923611,69.6214909 245.886402,75.2854909 L233.61171,75.2854909 Z" id="Fill-491"></path>
            <path d="M256.941505,73.6622182 C258.152996,73.6622182 258.494446,73.3600364 258.494446,72.2647636 C258.494446,69.2429455 256.978714,67.2422182 254.668454,67.2422182 C252.849576,67.2422182 251.63699,68.3374909 250.841368,70.6033091 C250.462709,71.6604 250.310588,72.4916727 250.310588,73.6622182 L256.941505,73.6622182 Z M250.273379,75.2854909 C250.235075,77.3636727 250.538222,78.6847636 251.220027,79.8182182 C252.204979,81.4796727 253.606895,82.3109455 255.53959,82.3109455 C258.077483,82.3109455 259.668728,81.1774909 261.221669,78.2702182 L262.548071,78.9869455 C260.994036,82.5749455 258.418933,84.3498545 254.81948,84.3498545 C249.70539,84.3498545 246.256963,80.7618545 246.256963,75.4742182 C246.256963,69.8102182 249.89472,65.6178545 254.742873,65.6178545 C259.365581,65.6178545 262.58528,69.6214909 262.548071,75.2854909 L250.273379,75.2854909 Z" id="Fill-492"></path>
            <path d="M268.988345,70.8677455 C270.199836,67.5437455 272.284651,65.6182909 274.670424,65.6182909 C276.678632,65.6182909 277.966731,66.8270182 277.966731,68.6390182 C277.966731,70.1881091 277.020082,71.2081091 275.656471,71.2081091 C274.442791,71.2081091 273.571655,70.3386545 273.571655,69.1299273 C273.571655,68.4132 273.723776,68.0346545 274.254555,67.4313818 C272.662216,67.6190182 271.375212,68.7906545 270.465773,70.9048364 C269.51803,73.0582909 268.988345,75.9284727 268.988345,78.7593818 L268.988345,79.1379273 L268.988345,80.6488364 C268.988345,82.1597455 269.405308,82.4237455 271.830479,82.4237455 L272.549494,82.4237455 L272.549494,83.7830182 L262.434036,83.7830182 L262.434036,82.4237455 L262.585062,82.4237455 C265.047442,82.4237455 265.464405,82.1597455 265.464405,80.6488364 L265.464405,79.1379273 L265.464405,70.1128364 C265.464405,68.4873818 265.236772,68.2233818 263.835951,68.2233818 L262.281915,68.2233818 L262.281915,66.6001091 L268.988345,66.1844727 L268.988345,70.8677455 Z" id="Fill-493"></path>
            <path d="M286.225007,60.2697818 C286.225007,61.4785091 285.241149,62.4603273 283.99026,62.4603273 C282.815978,62.4603273 281.829932,61.4403273 281.829932,60.2697818 C281.829932,59.0621455 282.815978,58.0792364 284.027469,58.0792364 C285.241149,58.0792364 286.225007,59.0621455 286.225007,60.2697818 Z M285.808044,79.1381455 L285.808044,80.6490545 C285.808044,82.1588727 286.225007,82.4239636 288.687387,82.4239636 L288.953324,82.4239636 L288.953324,83.7832364 L279.139918,83.7832364 L279.139918,82.4239636 L279.405855,82.4239636 C281.829932,82.4239636 282.246895,82.1588727 282.246895,80.6490545 L282.246895,79.1381455 L282.246895,70.1119636 C282.246895,68.4876 282.019261,68.2236 280.61844,68.2236 L278.685746,68.2236 L278.685746,66.6003273 L285.808044,66.1846909 L285.808044,79.1381455 Z" id="Fill-494"></path>
            <path d="M295.548673,69.2431636 C297.214337,66.7515273 299.109822,65.6180727 301.533899,65.6180727 C303.76974,65.6180727 305.701341,66.7133455 306.649083,68.5264364 C307.330889,69.8104364 307.443611,70.4900727 307.443611,73.2086182 L307.443611,79.1377091 L307.443611,80.6486182 C307.443611,82.1595273 307.860575,82.4235273 310.285746,82.4235273 L310.436772,82.4235273 L310.436772,83.7828 L300.852093,83.7828 L300.852093,82.4235273 L301.003119,82.4235273 C303.465499,82.4235273 303.882462,82.1595273 303.882462,80.6486182 L303.882462,79.1377091 L303.882462,73.0198909 C303.882462,71.2078909 303.61762,70.0373455 303.049631,69.2431636 C302.481642,68.4882545 301.344569,67.9220727 300.359617,67.9220727 C298.730068,67.9220727 297.026101,69.0926182 296.230479,70.7922545 C295.813516,71.6606182 295.548673,73.3591636 295.548673,75.2104364 L295.548673,79.1377091 L295.548673,80.6486182 C295.548673,82.1595273 295.964542,82.4235273 298.428016,82.4235273 L298.579042,82.4235273 L298.579042,83.7828 L288.994364,83.7828 L288.994364,82.4235273 L289.14539,82.4235273 C291.569466,82.4235273 291.98643,82.1595273 291.98643,80.6486182 L291.98643,79.1377091 L291.98643,70.1126182 C291.98643,68.4882545 291.759891,68.2231636 290.357975,68.2231636 L288.994364,68.2231636 L288.994364,66.5998909 L295.548673,66.1842545 L295.548673,69.2431636 Z" id="Fill-495"></path>
            <path d="M314.187579,71.9246182 C314.187579,74.7577091 315.665007,76.5326182 318.01357,76.5326182 C320.438741,76.5326182 321.877866,74.7577091 321.877866,71.8111636 C321.877866,68.9028 320.551464,67.2424364 318.165691,67.2424364 C315.626703,67.2424364 314.187579,68.9420727 314.187579,71.9246182 Z M315.021505,84.2355273 C313.202627,85.1802545 312.520821,86.0115273 312.520821,87.2573455 C312.520821,88.9569818 314.338605,89.9017091 317.521094,89.9017091 C321.764049,89.9017091 324.227524,88.6548 324.227524,86.5013455 C324.227524,85.2937091 323.279781,84.4624364 321.764049,84.3108 C321.19606,84.2355273 320.968427,84.2355273 317.824241,84.2355273 L315.021505,84.2355273 Z M319.794145,80.9889818 C322.408646,80.9889818 323.620137,81.1395273 324.606183,81.5169818 C326.008098,82.0842545 326.879234,83.5940727 326.879234,85.4824364 C326.879234,89.4468 323.69565,91.4486182 317.368974,91.4486182 C312.293187,91.4486182 309.376635,90.0522545 309.376635,87.5595273 C309.376635,86.0115273 310.512613,84.8028 312.861176,83.9715273 C311.080602,83.3671636 310.323283,82.3853455 310.323283,80.7238909 C310.323283,78.6468 311.383748,77.5144364 313.922736,76.9471636 C311.951737,76.0406182 310.740246,74.1151636 310.740246,71.8875273 C310.740246,68.1108 313.695103,65.6180727 318.2029,65.6180727 C320.097291,65.6180727 321.309877,65.9955273 322.901122,67.0526182 C324.643393,65.4675273 325.326293,65.0889818 326.537784,65.0889818 C328.015212,65.0889818 329.037373,65.9955273 329.037373,67.2795273 C329.037373,68.2995273 328.281149,69.0926182 327.333406,69.0926182 C326.385663,69.0926182 325.780465,68.6017091 325.628345,67.6951636 C325.552832,67.2795273 325.439015,67.1671636 325.249685,67.1671636 C324.946539,67.1671636 324.606183,67.3929818 323.961587,68.0726182 C325.022052,69.3184364 325.363502,70.2631636 325.363502,71.7729818 C325.363502,74.2657091 324.075404,76.2293455 321.802353,77.2493455 C320.551464,77.8155273 319.983475,77.8918909 316.385116,77.9671636 C313.846129,78.0424364 312.823967,78.5344364 312.823967,79.6668 C312.823967,80.0824364 313.013297,80.4969818 313.27814,80.6486182 C313.732312,80.9126182 313.846129,80.9497091 315.92985,80.9889818 L319.794145,80.9889818 Z" id="Fill-496"></path>
        </g>
    </g>
</svg>